# xmcd
#
# Track frame offsets:
#	150
#	21590
#	39358
#	53783
#	71158
#
# Disc length: 1108 seconds
#
# Revision: 1
# Processed by: cddbd v1.5.1PL0 Copyright (c) Steve Scherf et al.
# Submitted via: CDex 1.50Beta5
#
DISCID=42045205
DTITLE=Various Artist - Best Sound Collection 70`s
DYEAR=1970
DGENRE=Pop
TTITLE0=西城秀樹/Young Man
TTITLE1=サーカス/Mr. Summer Time
TTITLE2=ガロ/学生街の喫茶店
TTITLE3=吉田美奈子/夢で逢えたら
TTITLE4=赤い鳥/翼をください
EXTD=
EXTT0=
EXTT1=
EXTT2=
EXTT3=
EXTT4=
PLAYORDER=
